<svg xmlns="http://www.w3.org/2000/svg"><style>:root svg:not(:target){display:none}</style><svg viewBox="0 0 10 12" fill="none" id="arr-video-right"><path fill-rule="evenodd" clip-rule="evenodd" d="M.35.22a.88.88 0 0 1 1.3.16l4.18 5.62-4.18 5.62c-.32.44-.9.5-1.3.16-.4-.34-.47-.97-.15-1.4l3.25-4.38-3.25-4.38a1.05 1.05 0 0 1 .15-1.4Zm4.17 0a.88.88 0 0 1 1.3.16l4.18 5.62-4.17 5.62c-.32.44-.9.5-1.3.16-.4-.34-.47-.97-.15-1.4l3.24-4.38-3.24-4.38a1.05 1.05 0 0 1 .14-1.4Z" fill="#999"></path></svg><svg viewBox="0 0 30 8" fill="none" id="arr_left"><path d="M5.72254 8C3.90173 6.31339 1.99422 5.08262 0 4.30769V3.69231C1.99422 2.89459 3.90173 1.66382 5.72254 0H7.23988C6.37283 1.4359 5.53468 2.52991 4.72543 3.28205H30V4.71795H4.72543C5.53468 5.47009 6.37283 6.5641 7.23988 8H5.72254Z" fill="white"></path></svg><svg viewBox="0 0 13 20" fill="none" id="face"><path d="M3.78 20L3.75 11.25H0V7.5H3.75V5C3.75 1.63 5.84 0 8.85 0C10.29 0 11.53 0.1 11.89 0.15V3.68H9.8C8.17 3.68 7.85 4.46 7.85 5.6V7.5H12.5L11.25 11.25H7.85V20H3.78Z" fill="white"></path></svg><svg viewBox="0 0 35 35" fill="none" id="fullscreen"><path d="M30.6055 30.7513H22.4097V34.8638H34.7083V22.5069H30.6055V30.7513Z" fill="#B3B3B3"></path><path d="M4.10278 22.5069H0V34.8638H12.2986V30.7513H4.10278V22.5069Z" fill="#B3B3B3"></path><path d="M0 12.3569H4.10278V4.12222H12.2986V0H0V12.3569Z" fill="#B3B3B3"></path><path d="M22.4097 0V4.12222H30.6055V12.3569H34.7083V0H22.4097Z" fill="#B3B3B3"></path></svg><svg viewBox="0 0 36 36" fill="none" id="fullscreen_exit"><g clip-path="url(#fullscreen_exit_0)"><path d="M28.2554 7.74495H35.9764V12.8119H23.1874V0.0229492H28.2544V7.74395L28.2554 7.74495ZM23.1884 35.976V23.1869H35.9774V28.2539H28.2564V35.9749H23.1894L23.1884 35.976ZM7.74544 7.74495V0.0239492H12.8124V12.8129H0.0234375V7.74595H7.74444L7.74544 7.74495ZM0.0244375 28.2549V23.1879H12.8134V35.977H7.74644V28.2559H0.0254375L0.0244375 28.2549Z" fill="#B3B3B3"></path></g><defs><clipPath id="fullscreen_exit_0"><rect width="36" height="36" fill="white"></rect></clipPath></defs></svg><svg viewBox="0 0 20 20" fill="none" id="inst"><path d="M11.0202 0C12.8202 0 13.2002 0.0199999 14.1202 0.0599999C15.1802 0.11 15.9102 0.28 16.5402 0.53C17.2002 0.78 17.7602 1.13 18.3102 1.68C18.8702 2.23 19.2102 2.79 19.4702 3.45C19.7202 4.08 19.8802 4.81 19.9302 5.88C19.9802 6.83 19.9902 7.2 19.9902 9.2V10.8C19.9902 12.8 19.9802 13.17 19.9302 14.12C19.9144 14.9468 19.7589 15.7651 19.4702 16.54C19.2102 17.2 18.8702 17.76 18.3202 18.31C17.7602 18.87 17.2002 19.21 16.5402 19.47C15.9102 19.72 15.1802 19.88 14.1202 19.93C13.1702 19.98 12.7902 19.99 10.7902 19.99H9.20015C7.20015 19.99 6.83015 19.98 5.87015 19.93C5.04333 19.9141 4.22515 19.7586 3.45015 19.47C2.78376 19.2195 2.17981 18.8271 1.68015 18.32C1.16796 17.8186 0.771985 17.211 0.520153 16.54C0.231773 15.765 0.0762563 14.9468 0.0601533 14.12C0.0111304 13.0874 -0.00887746 12.0537 0.000153349 11.02V8.97C0.000153349 7.17 0.0201533 6.79 0.0601533 5.87C0.110153 4.81 0.280153 4.08 0.520153 3.45C0.780153 2.79 1.12015 2.23 1.68015 1.68C2.17533 1.16743 2.78059 0.774176 3.45015 0.53C4.22461 0.238206 5.04278 0.079305 5.87015 0.0599999C6.79015 0.0199999 7.17015 0 8.97015 0H11.0202ZM11.0402 1.8H8.95015C7.22015 1.8 6.85015 1.82 5.95015 1.86C4.98015 1.9 4.45015 2.06 4.10015 2.2C3.63015 2.38 3.30015 2.6 2.95015 2.95C2.60015 3.3 2.38015 3.63 2.20015 4.1C2.07015 4.45 1.90015 4.98 1.86015 5.96C1.82015 6.86 1.80015 7.22 1.80015 8.96V11.04C1.80015 12.78 1.82015 13.14 1.86015 14.04C1.90015 15.01 2.06015 15.54 2.20015 15.89C2.38015 16.36 2.60015 16.69 2.95015 17.04C3.30015 17.39 3.63015 17.61 4.10015 17.79C4.45015 17.93 4.98015 18.09 5.96015 18.13C6.93015 18.18 7.28015 18.19 9.44015 18.19H10.5502C12.7202 18.19 13.0602 18.18 14.0402 18.13C15.0102 18.09 15.5402 17.93 15.8902 17.79C16.3602 17.61 16.6902 17.39 17.0402 17.04C17.3902 16.69 17.6102 16.36 17.7902 15.89C17.9302 15.54 18.0902 15.01 18.1302 14.04C18.1802 13.06 18.1902 12.72 18.1902 10.55V9.45C18.1902 7.28 18.1802 6.93 18.1302 5.95C18.0902 4.98 17.9302 4.45 17.7902 4.1C17.6292 3.66543 17.373 3.27246 17.0402 2.95C16.7179 2.61692 16.3249 2.3606 15.8902 2.2C15.2971 1.98317 14.6716 1.86822 14.0402 1.86C13.0409 1.81227 12.0405 1.79226 11.0402 1.8ZM10.0002 4.86C11.362 4.86 12.6681 5.40101 13.6311 6.36401C14.5941 7.32701 15.1352 8.63311 15.1352 9.995C15.1352 11.3569 14.5941 12.663 13.6311 13.626C12.6681 14.589 11.362 15.13 10.0002 15.13C8.63827 15.13 7.33216 14.589 6.36916 13.626C5.40616 12.663 4.86515 11.3569 4.86515 9.995C4.86515 8.63311 5.40616 7.32701 6.36916 6.36401C7.33216 5.40101 8.63827 4.86 10.0002 4.86ZM10.0002 6.66C9.11566 6.66 8.26739 7.01136 7.64195 7.6368C7.01652 8.26223 6.66515 9.1105 6.66515 9.995C6.66515 10.8795 7.01652 11.7278 7.64195 12.3532C8.26739 12.9786 9.11566 13.33 10.0002 13.33C10.8847 13.33 11.7329 12.9786 12.3584 12.3532C12.9838 11.7278 13.3352 10.8795 13.3352 9.995C13.3352 9.1105 12.9838 8.26223 12.3584 7.6368C11.7329 7.01136 10.8847 6.66 10.0002 6.66ZM15.3302 3.46C15.6484 3.46 15.9536 3.58643 16.1787 3.81147C16.4037 4.03652 16.5302 4.34174 16.5302 4.66C16.5302 4.97826 16.4037 5.28348 16.1787 5.50853C15.9536 5.73357 15.6484 5.86 15.3302 5.86C15.0119 5.86 14.7067 5.73357 14.4816 5.50853C14.2566 5.28348 14.1302 4.97826 14.1302 4.66C14.1302 4.34174 14.2566 4.03652 14.4816 3.81147C14.7067 3.58643 15.0119 3.46 15.3302 3.46Z" fill="white"></path></svg><svg viewBox="0 0 36 30" fill="none" id="mute"><g clip-path="url(#mute_0)"><path d="M32.2053 15L35.6703 11.535C35.8901 11.3152 36 11.0474 36 10.7337C36 10.4199 35.8901 10.1522 35.6703 9.93234L34.0677 8.32972C33.8478 8.10991 33.5801 8 33.2663 8C32.9526 8 32.6848 8.10991 32.465 8.32972L29 11.7947L25.535 8.32972C25.3152 8.10991 25.0474 8 24.7337 8C24.4199 8 24.1522 8.10991 23.9323 8.32972L22.3297 9.93234C22.1099 10.1522 22 10.4199 22 10.7337C22 11.0474 22.1099 11.3152 22.3297 11.535L25.7947 15L22.3297 18.465C22.1099 18.6848 22 18.9526 22 19.2663C22 19.5801 22.1099 19.8478 22.3297 20.0677L23.9323 21.6703C24.1522 21.8901 24.4199 22 24.7337 22C25.0474 22 25.3152 21.8901 25.535 21.6703L29 18.2053L32.465 21.6703C32.6848 21.8901 32.9516 22 33.2663 22C33.5811 22 33.8478 21.8901 34.0677 21.6703L35.6703 20.0677C35.8901 19.8478 36 19.5801 36 19.2663C36 18.9526 35.8901 18.6848 35.6703 18.465L32.2053 15Z" fill="#B3B3B3"></path><path d="M18.3326 0C17.8816 0 17.4905 0.156374 17.1604 0.469123L8.48928 8.68426H1.66737C1.21531 8.68426 0.825273 8.84064 0.495164 9.15339C0.165055 9.46614 0 9.83665 0 10.2639V19.7361C0 20.1633 0.165055 20.5339 0.495164 20.8466C0.825273 21.1594 1.21636 21.3157 1.66737 21.3157H8.48928L17.1604 29.5309C17.4905 29.8436 17.8806 30 18.3326 30C18.7847 30 19.1747 29.8436 19.5048 29.5309C19.8349 29.2181 20 28.8486 20 28.4203V1.57968C20 1.15239 19.8349 0.781873 19.5059 0.469123C19.1768 0.156374 18.7857 0 18.3337 0H18.3326Z" fill="#B3B3B3"></path></g><defs><clipPath id="mute_0"><rect width="36" height="30" fill="white"></rect></clipPath></defs></svg><svg viewBox="0 0 21 30" fill="none" id="pause"><g clip-path="url(#pause_0)"><path d="M8 29.0471V0.944802C8 0.421605 7.55026 0 6.98347 0H1.01653C0.449742 0 0 0.421605 0 0.944802V29.0471C0 29.5703 0.449742 30 1.01653 30H6.98347C7.55026 30 8 29.5784 8 29.0471Z" fill="#B3B3B3"></path><path d="M19.9835 0H14.0165C13.4584 0 13 0.421605 13 0.944802V29.0471C13 29.5703 13.4497 30 14.0165 30H19.9835C20.5416 30 21 29.5784 21 29.0471V0.944802C21 0.421605 20.5503 0 19.9835 0Z" fill="#B3B3B3"></path></g><defs><clipPath id="pause_0"><rect width="21" height="30" fill="white"></rect></clipPath></defs></svg><svg viewBox="0 0 20 20" fill="none" id="pint"><path d="M10.0002 0C7.67571 0.00823729 5.42667 0.826025 3.63977 2.31277C1.85286 3.79952 0.63972 5.86234 0.208905 8.1466C-0.221909 10.4309 0.156518 12.7939 1.27913 14.8293C2.40174 16.8648 4.1984 18.4456 6.36023 19.3C6.26023 18.51 6.19023 17.3 6.39023 16.43L7.56023 11.46C7.56023 11.46 7.26023 10.86 7.26023 9.98C7.26023 8.59 8.07023 7.56 9.08023 7.56C9.93023 7.56 10.3502 8.2 10.3502 8.96C10.3502 9.82 9.80023 11.1 9.51023 12.29C9.27023 13.29 10.0102 14.1 11.0002 14.1C12.7802 14.1 14.1402 12.23 14.1402 9.53C14.1402 7.13 12.4202 5.47 9.96023 5.47C9.37582 5.44433 8.79227 5.53734 8.2448 5.74342C7.69733 5.94951 7.19729 6.26438 6.77487 6.66904C6.35245 7.07371 6.01641 7.55977 5.78702 8.09789C5.55763 8.63601 5.43966 9.21503 5.44023 9.8C5.44023 10.66 5.77023 11.58 6.18023 12.08C6.26023 12.18 6.27023 12.27 6.24023 12.37L5.96023 13.5C5.92023 13.68 5.81023 13.73 5.63023 13.64C4.37023 13.05 3.59023 11.24 3.59023 9.76C3.59023 6.61 5.89023 3.72 10.2102 3.72C13.6702 3.72 16.3802 6.18 16.3802 9.49C16.3802 12.94 14.2002 15.71 11.1802 15.71C10.1802 15.71 9.22023 15.18 8.90023 14.56L8.27023 16.93C7.97509 17.8577 7.55811 18.7421 7.03023 19.56C8.40406 19.9816 9.85261 20.1021 11.2772 19.9133C12.7018 19.7245 14.069 19.2309 15.2856 18.4661C16.5023 17.7014 17.5398 16.6833 18.3275 15.4814C19.1152 14.2795 19.6346 12.9219 19.8504 11.5011C20.0661 10.0804 19.9731 8.62979 19.5776 7.24822C19.1822 5.86664 18.4936 4.58652 17.5588 3.49506C16.6241 2.40359 15.465 1.52642 14.1607 0.923296C12.8563 0.320168 11.4373 0.00525257 10.0002 0Z" fill="white"></path></svg><svg viewBox="0 0 23 31" fill="none" id="play"><g clip-path="url(#play_0)"><path d="M23 15.5053L0 0C0 23.3683 0 11.8996 0 31L23 15.5053Z" fill="#B3B3B3"></path></g><defs><clipPath id="play_0"><rect width="23" height="31" fill="white"></rect></clipPath></defs></svg><svg viewBox="0 0 4 16" fill="none" id="still"><circle cx="2" cy="2" r="2" fill="white"></circle><circle cx="2" cy="8" r="2" fill="white"></circle><circle cx="2" cy="14" r="2" fill="white"></circle></svg><svg viewBox="0 0 20 17" fill="none" id="twitter"><path d="M20 1.88C19.25 2.25 18.5 2.38 17.62 2.5C18.5 2 19.12 1.25 19.37 0.25C18.5606 0.731306 17.6743 1.06959 16.75 1.25C15.9485 0.46227 14.8737 0.0144601 13.75 0C11.62 0 9.75 1.88 9.75 4.13C9.75 4.5 9.75 4.75 9.88 5C8.24216 4.93823 6.63643 4.52707 5.17046 3.79408C3.70448 3.0611 2.41212 2.02321 1.38 0.75C1.00812 1.39563 0.834247 2.13634 0.88 2.88C0.891623 3.55196 1.06825 4.21077 1.39434 4.79842C1.72043 5.38608 2.18597 5.88456 2.75 6.25C2.12 6.25 1.5 6 0.87 5.75C0.87 7.75 2.25 9.38 4.12 9.75C3.75 9.88 3.37 9.88 3 9.88C2.75 9.88 2.5 9.88 2.25 9.75C2.75 11.38 4.25 12.63 6.13 12.63C4.67779 13.7963 2.8622 14.4156 1 14.38H0C1.87496 15.5591 4.03554 16.2056 6.25 16.25C13.75 16.25 17.88 10 17.88 4.62V4.12C18.7387 3.53355 19.4617 2.76969 20 1.88Z" fill="white"></path></svg><svg viewBox="0 0 38 31" fill="none" id="volume"><g clip-path="url(#volume_0)"><path d="M19.3511 0C18.875 0 18.4622 0.161587 18.1138 0.484761L8.9609 8.97374H1.76C1.28282 8.97374 0.871122 9.13533 0.522673 9.4585C0.174224 9.78167 0 10.1645 0 10.6061V20.3939C0 20.8355 0.174224 21.2183 0.522673 21.5415C0.871122 21.8647 1.28393 22.0263 1.76 22.0263H8.9609L18.1138 30.5152C18.4622 30.8384 18.8739 31 19.3511 31C19.8283 31 20.24 30.8384 20.5884 30.5152C20.9369 30.1921 21.1111 29.8102 21.1111 29.3677V1.63234C21.1111 1.1908 20.9369 0.807935 20.5895 0.484761C20.2422 0.161587 19.8294 0 19.3522 0H19.3511Z" fill="#B3B3B3"></path><path d="M29.5979 19.1322C30.3389 18.0151 30.7094 16.8082 30.7094 15.5103C30.7094 14.2125 30.3389 13.0014 29.5979 11.8751C28.8569 10.7487 27.8774 9.95512 26.6561 9.49425C26.4819 9.40952 26.2634 9.36612 26.0027 9.36612C25.5499 9.36612 25.1572 9.52422 24.8258 9.83939C24.4943 10.1566 24.3286 10.5431 24.3286 11.004C24.3286 11.3625 24.4331 11.6653 24.6432 11.9123C24.8532 12.1592 25.1044 12.3731 25.4011 12.5519C25.6966 12.7307 25.9932 12.927 26.2898 13.1409C26.5864 13.3548 26.8387 13.6565 27.0477 14.0492C27.2567 14.4419 27.3612 14.9286 27.3612 15.5083C27.3612 16.088 27.2567 16.5747 27.0477 16.9673C26.8387 17.36 26.5864 17.6628 26.2898 17.8756C25.9932 18.0885 25.6966 18.2859 25.4011 18.4646C25.1044 18.6434 24.8522 18.8573 24.6432 19.1043C24.4342 19.3512 24.3286 19.655 24.3286 20.0126C24.3286 20.4734 24.4954 20.8609 24.8258 21.1771C25.1572 21.4913 25.5488 21.6514 26.0027 21.6514C26.2634 21.6514 26.4819 21.6091 26.6561 21.5233C27.8763 21.0449 28.8569 20.2471 29.5979 19.1291V19.1322Z" fill="#B3B3B3"></path><path d="M35.7563 22.8582C37.252 20.6112 37.9999 18.1571 37.9999 15.499C37.9999 12.8419 37.252 10.3899 35.7563 8.13971C34.2605 5.89271 32.2811 4.25452 29.819 3.23039C29.591 3.14417 29.362 3.10001 29.1329 3.10001C28.6759 3.10001 28.2796 3.26509 27.9451 3.59525C27.6105 3.92541 27.4443 4.31551 27.4443 4.76764C27.4443 5.44479 27.7874 5.95685 28.4735 6.30489C29.4579 6.80855 30.1269 7.19023 30.4785 7.45099C31.7803 8.38891 32.7967 9.56445 33.5265 10.9797C34.2562 12.395 34.6216 13.9007 34.6216 15.5C34.6216 17.0972 34.2562 18.6039 33.5265 20.0203C32.7967 21.4356 31.7803 22.6111 30.4785 23.549C30.1269 23.8098 29.4579 24.1915 28.4735 24.6951C27.7874 25.0432 27.4443 25.5542 27.4443 26.2324C27.4443 26.6835 27.6116 27.0746 27.9451 27.4048C28.2785 27.7349 28.6833 27.9 29.1585 27.9C29.3694 27.9 29.59 27.8558 29.818 27.7696C32.28 26.7444 34.2605 25.1084 35.7552 22.8593L35.7563 22.8582Z" fill="#B3B3B3"></path></g><defs><clipPath id="volume_0"><rect width="38" height="31" fill="white"></rect></clipPath></defs></svg><svg viewBox="0 0 23 16" fill="none" id="youtube"><path d="M9.03 11.38V4.62L14.97 8L9.03 11.38ZM22.23 2.5C22.1026 2.01772 21.8508 1.57733 21.4998 1.22285C21.1488 0.868375 20.711 0.612223 20.23 0.48C18.46 2.98023e-08 11.35 0 11.35 0C11.35 0 4.25 2.98023e-08 2.48 0.48C1.99901 0.612223 1.56115 0.868375 1.21018 1.22285C0.859213 1.57733 0.607431 2.01772 0.48 2.5C2.98023e-08 4.28 0 8 0 8C0 8 2.98023e-08 11.72 0.47 13.5C0.598299 13.9835 0.851586 14.4247 1.20441 14.7793C1.55723 15.1338 1.99717 15.3893 2.48 15.52C4.25 16 11.36 16 11.36 16C11.36 16 18.46 16 20.23 15.52C20.711 15.3878 21.1488 15.1316 21.4998 14.7771C21.8508 14.4227 22.1026 13.9823 22.23 13.5C22.71 11.72 22.71 8 22.71 8C22.71 8 22.71 4.28 22.24 2.5H22.23Z" fill="white"></path></svg></svg>